<?xml version="1.0" standalone="no"?>
<!DOCTYPE svg PUBLIC "-//W3C//DTD SVG 1.1//EN" "http://www.w3.org/Graphics/SVG/1.1/DTD/svg11.dtd" >
<svg xmlns="http://www.w3.org/2000/svg">
<metadata>Generated by IcoMoon</metadata>
<defs>
<font id="icomoon" horiz-adv-x="1024">
<font-face units-per-em="1024" ascent="960" descent="-64" />
<missing-glyph horiz-adv-x="1024" />
<glyph unicode="&#x20;" horiz-adv-x="512" d="" />
<glyph unicode="&#xe900;" glyph-name="myc-utilisateur" d="M884.654 28.16h-758.948c-5.652 0-10.24 4.588-10.24 10.24v79.36c0 57.467 34.611 109.056 86.159 128.43 3.994 1.802 113.070 49.418 298.557 49.418 185.303 0 303.862-47.493 308.797-49.521 51.282-19.251 85.914-70.881 85.914-128.328v-79.36c0-5.652-4.567-10.24-10.24-10.24v0zM135.946 48.64h738.488v69.12c0 48.968-29.307 92.856-72.909 109.261-1.434 0.573-120.361 48.108-301.343 48.108-180.756 0-289.71-47.391-290.796-47.882-44.155-16.609-73.441-60.498-73.441-109.486v-69.12zM499.917 417.874c-110.817 0-200.97 100.925-200.97 224.993 0 124.047 90.153 224.952 200.97 224.952s200.97-100.925 200.97-224.952c0.020-124.047-90.153-224.993-200.97-224.993v0zM499.917 847.36c-99.533 0-180.49-91.73-180.49-204.472 0-112.763 80.978-204.513 180.49-204.513s180.49 91.75 180.49 204.513c0.020 112.742-80.957 204.472-180.49 204.472v0z" />
<glyph unicode="&#xe901;" glyph-name="myc-parametres" d="M512 28.16c-16.691 0-27.853 1.004-27.853 1.004-15.79 1.434-31.048 14.623-34.755 30.003l-20.562 85.32c-1.864 7.762-10.465 17.224-18.022 19.845l-27.279 11.264c-8.131 3.912-20.869 2.97-27.32-1.004l-74.875-45.752c-13.23-8.11-34.017-6.246-45.568 4.055l-38.461 38.482c-11.039 12.349-12.841 32.358-4.485 45.978l45.773 74.834c4.178 6.82 4.772 19.579 1.27 26.767l-11.305 27.3c-2.826 8.11-12.288 16.712-20.070 18.616l-85.279 20.541c-15.38 3.707-28.57 18.944-30.003 34.714 0 0-1.024 11.162-1.024 27.873s1.024 27.894 1.024 27.894c1.434 15.77 14.623 31.027 30.003 34.714l85.299 20.541c7.782 1.864 17.224 10.465 19.845 18.022l11.264 27.3c3.768 7.762 3.174 20.521-1.004 27.361l-45.773 74.834c-8.335 13.619-6.533 33.649 4.096 45.568l38.441 38.502c12.268 10.977 32.707 12.575 45.978 4.506l74.875-45.814c6.451-3.953 19.927-4.567 26.747-1.249l27.3 11.305c8.11 2.826 16.712 12.308 18.596 20.070l20.541 85.32c3.707 15.38 18.964 28.57 34.734 30.003 0-0.041 11.141 0.963 27.853 0.963 16.691 0 27.853-1.004 27.853-1.004 15.79-1.434 31.048-14.623 34.734-30.003l20.562-85.32c1.884-7.762 10.486-17.224 18.043-19.845l27.279-11.264c8.11-3.891 20.849-2.97 27.32 0.983l74.854 45.773c13.23 8.11 34.017 6.226 45.568-4.055l38.502-38.482c11.018-12.37 12.82-32.379 4.485-45.998l-45.773-74.834c-4.157-6.82-4.751-19.579-1.27-26.767l11.305-27.3c2.847-8.131 12.288-16.732 20.050-18.596l85.299-20.562c15.38-3.686 28.57-18.924 30.003-34.693 0 0 1.024-11.182 1.024-27.894s-1.024-27.873-1.024-27.873c-1.434-15.79-14.623-31.027-30.024-34.714l-85.279-20.562c-7.782-1.884-17.244-10.486-19.845-18.022l-11.264-27.3c-3.768-7.762-3.154-20.521 1.004-27.341l45.773-74.834c8.335-13.619 6.533-33.628-4.076-45.548l-38.461-38.523c-12.308-10.977-32.768-12.554-45.998-4.465l-74.854 45.752c-6.472 3.953-19.948 4.588-26.747 1.27l-27.3-11.305c-8.11-2.847-16.712-12.308-18.596-20.050l-20.562-85.32c-3.707-15.38-18.944-28.57-34.714-30.003-0.020 0.020-11.182-0.983-27.873-0.983v0zM371.18 198.615c7.721 0 14.909-1.516 20.746-4.383l26.132-10.772c13.701-4.71 27.136-19.497 30.679-34.181l20.562-85.32c1.659-6.902 9.605-13.763 16.671-14.397 0.205-0.020 10.588-0.922 26.030-0.922 15.462 0 25.846 0.901 26.051 0.922 7.045 0.635 14.95 7.496 16.63 14.397l20.562 85.32c3.564 14.684 16.978 29.45 31.232 34.406l26.153 10.813c11.878 5.837 33.423 5.14 45.834-2.437l74.854-45.752c5.693-3.482 16.261-2.56 21.279 1.864l37.622 37.683c4.219 4.751 5.12 14.889 1.475 20.828l-45.773 74.834c-7.741 12.698-8.704 33.075-2.171 46.449l10.772 26.132c4.628 13.414 19.722 27.136 34.161 30.659l85.32 20.582c6.902 1.638 13.763 9.585 14.397 16.63 0.041 0.205 0.963 10.588 0.963 26.030s-0.922 25.825-0.942 26.030c-0.635 7.066-7.496 14.991-14.377 16.63l-85.32 20.562c-14.438 3.461-29.532 17.183-34.406 31.252l-10.813 26.153c-6.267 12.759-5.304 33.157 2.437 45.834l45.773 74.854c3.645 5.939 2.744 16.056-1.884 21.258l-37.663 37.642c-4.239 3.727-15.094 4.936-20.849 1.475l-74.854-45.773c-12.411-7.598-33.239-8.622-46.428-2.171l-26.132 10.772c-13.701 4.71-27.116 19.517-30.679 34.161l-20.562 85.34c-1.659 6.902-9.585 13.763-16.63 14.397-0.184 0.041-10.568 0.942-26.030 0.942-15.442 0-25.825-0.901-26.030-0.922-7.045-0.635-14.991-7.496-16.63-14.397l-20.562-85.34c-3.564-14.664-16.998-29.45-31.252-34.406l-26.153-10.813c-11.837-5.857-33.382-5.181-45.834 2.458l-74.854 45.793c-5.673 3.42-16.302 2.519-21.279-1.925l-37.601-37.663c-4.239-4.751-5.14-14.889-1.516-20.808l45.793-74.854c7.741-12.698 8.704-33.096 2.171-46.428l-10.772-26.132c-4.628-13.496-19.743-27.218-34.181-30.7l-85.299-20.541c-6.902-1.659-13.763-9.585-14.397-16.65-0.041-0.205-0.963-10.588-0.963-26.030s0.922-25.825 0.942-26.030c0.635-7.066 7.496-14.991 14.397-16.63l85.32-20.562c14.479-3.543 29.573-17.265 34.406-31.252l10.813-26.132c6.267-12.78 5.304-33.157-2.437-45.855l-45.773-74.834c-3.645-5.939-2.724-16.056 1.905-21.238l37.642-37.663c4.239-3.748 15.135-4.977 20.828-1.454l74.875 45.752c6.861 4.178 15.974 6.513 25.62 6.513v0zM512 273.92c-95.99 0-174.080 78.090-174.080 174.080s78.090 174.080 174.080 174.080c95.99 0 174.080-78.090 174.080-174.080s-78.090-174.080-174.080-174.080v0zM512 601.6c-84.705 0-153.6-68.895-153.6-153.6s68.895-153.6 153.6-153.6 153.6 68.895 153.6 153.6-68.895 153.6-153.6 153.6v0z" />
<glyph unicode="&#xe902;" glyph-name="myc-budget" d="M496.824 535.286c-213.545 0-380.826 73.032-380.826 166.277s167.281 166.277 380.826 166.277c213.565 0 380.846-73.032 380.846-166.277s-167.281-166.277-380.846-166.277v0zM496.824 847.36c-195.318 0-360.346-66.765-360.346-145.797s165.028-145.797 360.346-145.797c195.338 0 360.366 66.765 360.366 145.797s-165.028 145.797-360.366 145.797v0zM496.783 379.249c-213.545 0-380.826 73.032-380.826 166.277 0 5.652 4.588 10.24 10.24 10.24s10.24-4.588 10.24-10.24c0-79.032 165.028-145.797 360.346-145.797 195.338 0 360.366 66.765 360.366 145.797 0 5.652 4.588 10.24 10.24 10.24s10.24-4.588 10.24-10.24c0-93.245-167.281-166.277-380.846-166.277v0zM496.783 203.715c-213.545 0-380.826 73.032-380.826 166.277 0 5.652 4.588 10.24 10.24 10.24s10.24-4.588 10.24-10.24c0-79.032 165.028-145.797 360.346-145.797 195.338 0 360.366 66.765 360.366 145.797 0 5.652 4.588 10.24 10.24 10.24s10.24-4.588 10.24-10.24c0-93.225-167.281-166.277-380.846-166.277v0zM496.783 28.16c-213.545 0-380.826 73.032-380.826 166.277 0 5.652 4.588 10.24 10.24 10.24s10.24-4.588 10.24-10.24c0-79.032 165.028-145.797 360.346-145.797 195.338 0 360.366 66.765 360.366 145.797 0 5.652 4.588 10.24 10.24 10.24s10.24-4.588 10.24-10.24c0-93.245-167.281-166.277-380.846-166.277v0z" />
<glyph unicode="&#xe903;" glyph-name="myc-remarque" d="M914.78 30.679c-5.652 0-10.24 4.588-10.24 10.24v814.162c0 5.652 4.588 10.24 10.24 10.24s10.24-4.588 10.24-10.24v-814.162c0-5.652-4.588-10.24-10.24-10.24v0zM760.566 60.969c-2.232 0-4.465 0.737-6.308 2.15l-13.701 10.752c-79.073 62.423-211.436 166.871-480.768 166.871h-108.257c-36.495 0-66.191 29.471-66.191 65.72v281.416c0 37.13 29.696 67.359 66.191 67.359h110.060c268.022 0 399.36 103.875 477.819 165.949l14.848 11.694c3.092 2.417 7.25 2.826 10.793 1.126 3.523-1.72 5.734-5.284 5.734-9.196v-753.603c0-3.912-2.212-7.475-5.734-9.196-1.434-0.717-2.949-1.044-4.485-1.044v0zM151.532 634.757c-25.211 0-45.711-21.033-45.711-46.879v-281.395c0-25.354 20.070-45.24 45.711-45.24h108.257c273.121 0 409.027-104.653 490.516-168.96v711.414c-80.753-63.877-215.613-168.94-488.714-168.94h-110.060zM255.775 253.563c-5.652 0-10.24 4.588-10.24 10.24v368.046c0 5.652 4.588 10.24 10.24 10.24s10.24-4.588 10.24-10.24v-368.046c0-5.673-4.567-10.24-10.24-10.24v0z" />
<glyph unicode="&#xe904;" glyph-name="myc-personne" d="M919.859 69.12c-4.526 0-8.663 3.011-9.892 7.578-24.453 91.32-123.658 112.804-182.948 125.645-15.688 3.4-28.058 6.083-35.942 9.503-67.133 29.184-89.006 76.001-95.539 110.121-0.696 3.727 0.696 7.516 3.645 9.892 40.755 32.768 109.711 122.573 109.711 251.372 0 137.646-75.387 223.15-196.69 223.15s-196.69-85.504-196.69-223.15c0-128.778 68.956-218.604 109.691-251.372 2.949-2.376 4.342-6.185 3.645-9.892-6.492-34.12-28.385-80.916-95.519-110.121-7.885-3.42-20.275-6.103-35.942-9.503-59.269-12.841-158.474-34.324-182.948-125.645-1.454-5.448-7.045-8.622-12.534-7.25-5.468 1.475-8.704 7.086-7.25 12.554 27.709 103.363 138.732 127.427 198.39 140.349 14.008 3.031 26.092 5.652 32.133 8.274 45.138 19.62 72.806 49.644 82.309 89.313-52.961 45.281-112.435 139.469-112.435 263.27 0 150.282 83.21 243.63 217.17 243.63s217.17-93.368 217.17-243.63c0-123.843-59.474-218.010-112.456-263.27 9.544-39.69 37.192-69.714 82.33-89.313 6.021-2.621 18.125-5.243 32.113-8.274 59.658-12.923 170.701-36.987 198.41-140.349 1.454-5.489-1.782-11.080-7.25-12.554-0.922-0.205-1.802-0.328-2.683-0.328v0z" />
<glyph unicode="&#xe905;" glyph-name="myc-personnes" d="M980.89 101.97c-4.526 0-8.663 3.011-9.892 7.598-29.286 109.281-113.91 178.729-258.806 212.296-3.174 0.737-5.837 2.99-7.127 6.001-1.27 3.011-1.024 6.451 0.676 9.277 31.252 51.732 68.526 136.417 68.526 246.067 0 52.982-8.233 102.277-24.494 146.555-1.946 5.304 0.778 11.182 6.103 13.148 5.304 1.946 11.203-0.778 13.148-6.083 17.080-46.531 25.743-98.222 25.743-153.6 0-106.25-33.546-190.013-64.451-244.654 142.828-36.311 230.441-111.514 260.506-223.683 1.454-5.489-1.782-11.080-7.25-12.554-0.942-0.266-1.802-0.369-2.683-0.369v0zM858.419 69.12c-4.526 0-8.663 3.011-9.892 7.578-24.453 91.32-123.658 112.804-182.948 125.645-15.688 3.4-28.058 6.083-35.942 9.503-67.133 29.184-89.006 76.001-95.539 110.121-0.696 3.727 0.696 7.516 3.645 9.892 40.755 32.768 109.711 122.573 109.711 251.372 0 137.646-75.387 223.15-196.69 223.15s-196.69-85.504-196.69-223.15c0-128.778 68.956-218.604 109.691-251.372 2.949-2.376 4.342-6.185 3.645-9.892-6.513-34.12-28.365-80.916-95.519-110.121-7.885-3.42-20.275-6.103-35.942-9.503-59.269-12.841-158.474-34.324-182.948-125.645-1.454-5.448-7.045-8.622-12.534-7.25-5.468 1.475-8.704 7.086-7.25 12.554 27.709 103.363 138.732 127.427 198.39 140.349 14.008 3.031 26.092 5.652 32.133 8.274 45.138 19.62 72.806 49.644 82.309 89.313-52.961 45.281-112.456 139.469-112.456 263.27 0 150.282 83.21 243.63 217.17 243.63s217.17-93.368 217.17-243.63c0-123.843-59.474-218.010-112.456-263.27 9.544-39.69 37.192-69.714 82.33-89.313 6.021-2.621 18.125-5.243 32.113-8.274 59.658-12.923 170.701-36.987 198.41-140.349 1.454-5.489-1.782-11.080-7.25-12.554-0.901-0.205-1.782-0.328-2.662-0.328v0z" />
<glyph unicode="&#xe906;" glyph-name="myc-calendrier" d="M879.677 569.672h-749.015c-5.652 0-10.24 4.588-10.24 10.24v187.167c0 5.652 4.588 10.24 10.24 10.24h749.015c5.652 0 10.24-4.588 10.24-10.24v-187.167c0-5.652-4.588-10.24-10.24-10.24v0zM140.902 590.152h728.535v166.687h-728.535v-166.687zM344.658 662.241c-5.652 0-10.24 4.588-10.24 10.24v185.119c0 5.652 4.588 10.24 10.24 10.24s10.24-4.588 10.24-10.24v-185.119c0-5.652-4.588-10.24-10.24-10.24v0zM665.682 662.241c-5.652 0-10.24 4.588-10.24 10.24v185.119c0 5.652 4.588 10.24 10.24 10.24s10.24-4.588 10.24-10.24v-185.119c0-5.652-4.588-10.24-10.24-10.24v0zM879.677 28.16h-749.015c-5.652 0-10.24 4.588-10.24 10.24v448.84c0 5.652 4.588 10.24 10.24 10.24s10.24-4.588 10.24-10.24v-438.6h728.535v438.6c0 5.652 4.588 10.24 10.24 10.24s10.24-4.588 10.24-10.24v-448.84c0-5.652-4.588-10.24-10.24-10.24v0z" />
<glyph unicode="&#xe907;" glyph-name="myc-annuler" d="M510.464 20.562c-231.506 0-419.84 188.334-419.84 419.84s188.334 419.84 419.84 419.84 419.84-188.334 419.84-419.84-188.334-419.84-419.84-419.84v0zM510.464 839.762c-220.201 0-399.36-179.159-399.36-399.36s179.159-399.36 399.36-399.36c220.201 0 399.36 179.159 399.36 399.36s-179.159 399.36-399.36 399.36v0zM412.754 340.050c-2.621 0-5.243 1.004-7.25 2.99-3.994 3.994-3.994 10.486 0 14.479l195.4 195.441c3.994 3.994 10.486 3.994 14.479 0s3.994-10.486 0-14.479l-195.4-195.441c-1.987-2.007-4.608-2.99-7.229-2.99v0zM608.154 340.050c-2.621 0-5.243 1.004-7.25 2.99l-195.4 195.441c-3.994 3.994-3.994 10.486 0 14.479s10.486 3.994 14.479 0l195.4-195.441c3.994-3.994 3.994-10.486 0-14.479-1.987-2.007-4.608-2.99-7.229-2.99v0z" />
<glyph unicode="&#xe908;" glyph-name="myc-valider" d="M496.804 20.562c-231.506 0-419.84 188.334-419.84 419.84s188.334 419.84 419.84 419.84 419.84-188.334 419.84-419.84-188.334-419.84-419.84-419.84v0zM496.804 839.762c-220.201 0-399.36-179.159-399.36-399.36s179.159-399.36 399.36-399.36c220.201 0 399.36 179.159 399.36 399.36s-179.159 399.36-399.36 399.36v0zM454.124 340.050c-2.724 0-5.325 1.085-7.25 2.99l-110.039 110.039c-3.994 3.994-3.994 10.486 0 14.479s10.486 3.994 14.479 0l102.81-102.81 188.17 188.191c3.994 3.994 10.486 3.994 14.479 0s3.994-10.486 0-14.479l-195.4-195.441c-1.925-1.905-4.526-2.97-7.25-2.97v0z" />
<glyph unicode="&#xe909;" glyph-name="myc-modifier" d="M763.924 7.68h-676.721c-5.652 0-10.24 4.588-10.24 10.24v747.95c0 5.652 4.588 10.24 10.24 10.24h516.956c5.652 0 10.24-4.588 10.24-10.24s-4.588-10.24-10.24-10.24h-506.716v-727.47h656.241v434.954c0 5.652 4.588 10.24 10.24 10.24s10.24-4.588 10.24-10.24v-445.194c0-5.652-4.588-10.24-10.24-10.24v0zM849.9 707.482c-2.621 0-5.243 1.004-7.25 2.99l-69.98 70.001c-3.994 3.994-3.994 10.486 0 14.479s10.486 3.994 14.479 0l69.98-70.001c3.994-3.994 3.994-10.486 0-14.479-1.987-1.987-4.608-2.99-7.229-2.99v0zM449.72 377.242c-2.662 0-5.284 1.044-7.25 2.99-2.826 2.826-3.748 7.025-2.376 10.752l40.55 110.612c0.512 1.393 1.311 2.662 2.376 3.707l340.009 339.968c22.569 22.569 61.891 22.61 84.46 0 23.286-23.265 23.286-61.153 0-84.439l-1.434 1.434c-10.998-13.885-48.681-51.589-168.55-171.479l-170.004-170.004c-1.044-1.065-2.314-1.864-3.727-2.376l-110.531-40.55c-1.147-0.41-2.335-0.614-3.523-0.614v0zM499.118 492.442l-32.174-87.736 87.675 32.174c25.006 25.006 335.933 335.954 338.371 338.391 15.34 15.34 15.34 40.223 0.041 55.521-14.868 14.889-40.653 14.828-55.501 0l-338.412-338.35z" />
<glyph unicode="&#xe90a;" glyph-name="myc-document" d="M782.643 22.282h-554.947c-20.214 0-36.659 16.466-36.659 36.68v766.321c0 20.234 16.445 36.68 36.659 36.68h369.951c5.652 0 10.24-4.588 10.24-10.24s-4.588-10.24-10.24-10.24h-369.951c-8.929 0-16.179-7.27-16.179-16.2v-766.321c0-9.073 7.107-16.2 16.179-16.2h554.947c8.95 0 16.2 7.25 16.2 16.2v554.926c0 5.652 4.588 10.24 10.24 10.24s10.24-4.588 10.24-10.24v-554.926c0-20.214-16.466-36.68-36.68-36.68v0zM809.083 603.648h-184.975c-20.664 0-36.68 23.265-36.68 43.274v204.8c0 4.26 2.621 8.069 6.595 9.564 3.953 1.495 8.499 0.41 11.305-2.765l211.415-237.834c2.683-3.011 3.338-7.311 1.679-10.998s-5.304-6.042-9.339-6.042v0zM607.908 824.791v-177.869c0-10.445 8.786-22.794 16.2-22.794h162.181l-178.381 200.663zM676.946 462.725h-343.552c-5.652 0-10.24 4.588-10.24 10.24s4.588 10.24 10.24 10.24h343.532c5.652 0 10.24-4.588 10.24-10.24s-4.567-10.24-10.22-10.24v0zM491.95 603.648h-158.556c-5.652 0-10.24 4.588-10.24 10.24s4.588 10.24 10.24 10.24h158.556c5.652 0 10.24-4.588 10.24-10.24s-4.567-10.24-10.24-10.24v0zM676.946 321.761h-343.552c-5.652 0-10.24 4.588-10.24 10.24s4.588 10.24 10.24 10.24h343.532c5.652 0 10.24-4.588 10.24-10.24s-4.567-10.24-10.22-10.24v0zM676.946 180.838h-343.552c-5.652 0-10.24 4.588-10.24 10.24s4.588 10.24 10.24 10.24h343.532c5.652 0 10.24-4.588 10.24-10.24s-4.567-10.24-10.22-10.24v0z" />
<glyph unicode="&#xe90b;" glyph-name="myc-chat" d="M395.325 20.541c-12.841 0-25.6 5.059-35 13.865-10.138 9.503-15.708 22.528-15.708 36.68v178.729h-201.114c-27.812 0-50.442 22.61-50.442 50.442v509.501c0 27.832 22.63 50.483 50.442 50.483h723.333c27.812 0 50.463-22.651 50.463-50.483v-509.522c0-27.812-22.63-50.442-50.463-50.442h-207.299l-229.99-215.552c-9.441-8.827-21.606-13.701-34.222-13.701v0zM143.503 839.762c-16.527 0-29.962-13.455-29.962-30.003v-509.522c0-16.527 13.435-29.962 29.962-29.962h211.333c5.652 0 10.24-4.588 10.24-10.24v-188.969c0-10.793 5.018-17.777 9.236-21.729 5.632-5.304 13.292-8.335 20.992-8.335 5.243 0 13.005 1.413 20.214 8.172l232.96 218.317c1.905 1.782 4.403 2.765 7.004 2.765h211.333c16.548 0 29.983 13.435 29.983 29.962v509.542c0 16.548-13.435 30.003-29.983 30.003h-723.313zM330.138 555.008c0-22.203-17.999-40.202-40.202-40.202s-40.202 17.999-40.202 40.202c0 22.203 17.999 40.202 40.202 40.202s40.202-17.999 40.202-40.202zM544.768 555.008c0-22.203-17.999-40.202-40.202-40.202s-40.202 17.999-40.202 40.202c0 22.203 17.999 40.202 40.202 40.202s40.202-17.999 40.202-40.202zM759.439 555.008c0-22.203-17.999-40.202-40.202-40.202s-40.202 17.999-40.202 40.202c0 22.203 17.999 40.202 40.202 40.202s40.202-17.999 40.202-40.202z" />
<glyph unicode="&#xe90c;" glyph-name="myc-enveloppe" d="M505.426 431.493c-9.728 0-19.599 2.54-26.071 7.68l-287.826 187.085c-4.731 3.092-6.083 9.421-3.011 14.172 3.092 4.731 9.421 6.083 14.172 3.011l288.625-187.658c6.144-4.813 21.443-4.833 26.788-0.573l289.567 188.211c4.71 3.052 11.080 1.741 14.152-3.011 3.072-4.731 1.741-11.080-2.99-14.172l-288.768-187.638c-5.898-4.69-15.196-7.107-24.637-7.107v0zM920.617 130.396h-830.894c-21.443 0-38.892 17.469-38.892 38.912v557.056c0 21.463 17.449 38.912 38.892 38.912h830.894c21.463 0 38.912-17.469 38.912-38.912v-557.036c0.020-21.463-17.449-38.932-38.912-38.932v0zM89.723 744.796c-10.158 0-18.412-8.274-18.412-18.432v-557.036c0-10.158 8.253-18.432 18.412-18.432h830.894c10.158 0 18.432 8.274 18.432 18.432v557.036c0 10.179-8.274 18.432-18.432 18.432h-830.894z" />
<glyph unicode="&#xe90d;" glyph-name="myc-liste" d="M962.56 373.883h-624.497c-5.652 0-10.24 4.588-10.24 10.24v404.070c0 5.652 4.588 10.24 10.24 10.24h624.497c5.652 0 10.24-4.588 10.24-10.24v-404.070c0-5.673-4.588-10.24-10.24-10.24v0zM348.303 394.363h604.017v383.59h-604.017v-383.59zM824.259 235.561h-624.517c-5.652 0-10.24 4.588-10.24 10.24v404.070c0 5.652 4.588 10.24 10.24 10.24s10.24-4.588 10.24-10.24v-393.83h614.277c5.652 0 10.24-4.588 10.24-10.24s-4.588-10.24-10.24-10.24v0zM685.937 97.239h-624.497c-5.652 0-10.24 4.588-10.24 10.24v404.111c0 5.652 4.588 10.24 10.24 10.24s10.24-4.588 10.24-10.24v-393.871h614.257c5.652 0 10.24-4.588 10.24-10.24s-4.567-10.24-10.24-10.24v0z" />
<glyph unicode="&#xe90e;" glyph-name="myc-sonnette" d="M925.020 184.361h-839.68v10.24c0 231.506 188.334 419.84 419.84 419.84s419.84-188.334 419.84-419.84v-10.24zM105.943 204.841h798.474c-5.468 215.47-182.456 389.12-399.237 389.12s-393.769-173.65-399.237-389.12v0zM246.129 307.241c-1.475 0-2.97 0.328-4.383 1.004-5.12 2.417-7.27 8.54-4.854 13.64 49.091 103.076 154.399 169.677 268.288 169.677 5.652 0 10.24-4.588 10.24-10.24s-4.588-10.24-10.24-10.24c-106.025 0-204.083-62.013-249.795-158.003-1.761-3.686-5.427-5.837-9.257-5.837v0zM914.78 57.672h-819.2c-5.652 0-10.24 4.588-10.24 10.24s4.588 10.24 10.24 10.24h819.2c5.652 0 10.24-4.588 10.24-10.24s-4.588-10.24-10.24-10.24v0zM505.18 696.361c-35.041 0-63.57 28.508-63.57 63.57 0 35.021 28.508 63.529 63.57 63.529 35.041 0 63.549-28.488 63.549-63.529 0-35.062-28.508-63.57-63.549-63.57v0zM505.18 802.959c-23.757 0-43.090-19.313-43.090-43.049 0-23.757 19.333-43.090 43.090-43.090 23.736 0 43.069 19.333 43.069 43.090 0 23.736-19.333 43.049-43.069 43.049v0zM507.003 58.409c-5.652 0-10.24 4.588-10.24 10.24v126.689c0 5.652 4.588 10.24 10.24 10.24s10.24-4.588 10.24-10.24v-126.689c0-5.673-4.588-10.24-10.24-10.24v0z" />
<glyph unicode="&#xe90f;" glyph-name="myc-telephone" d="M252.887 7.537c-19.968 0-38.748 7.782-52.859 21.893l-29.020 29.020c-47.903 47.923-50.196 132.567-6.431 238.346 38.789 93.737 110.141 196.608 195.789 282.214 135.905 135.926 303.718 227.246 417.608 227.246 43.172 0 77.824-12.739 102.953-37.888l29.020-29c29.143-29.143 29.143-76.575 0-105.718l-92.774-92.795c-28.242-28.242-77.476-28.242-105.718 0l-24.392 24.392c-43.192 43.131-113.992 11.551-219.218-93.676-46.387-46.387-77.537-85.361-95.232-119.153-22.774-43.52-22.262-76.268 1.556-100.086l24.392-24.392c29.123-29.143 29.123-76.575 0-105.718l-92.795-92.754c-14.152-14.152-32.911-21.934-52.879-21.934v0zM777.953 785.756c-107.090 0-272.876-90.972-403.128-221.245-83.804-83.784-153.559-184.238-191.345-275.579-40.387-97.628-39.69-174.346 1.987-216.023l29.020-29c20.5-20.521 56.259-20.521 76.759 0l92.795 92.754c21.135 21.156 21.135 55.603 0 76.759l-24.392 24.392c-30.556 30.556-32.317 72.274-5.222 124.047 18.678 35.676 51.016 76.308 98.898 124.15 115.978 115.978 197.304 144.589 248.177 93.676l24.392-24.392c20.521-20.5 56.238-20.5 76.759 0l92.774 92.795c10.26 10.24 15.892 23.88 15.892 38.38s-5.632 28.14-15.892 38.38l-29.020 29c-21.135 21.197-50.893 31.908-88.453 31.908v0z" />
<glyph unicode="&#xe910;" glyph-name="myc-carte" d="M124.355 48.681c-1.782 0-3.564 0.451-5.161 1.393-3.133 1.843-5.079 5.202-5.079 8.847v634.798c0 3.707 2.007 7.107 5.222 8.929l254.956 143.442c3.174 1.802 7.045 1.761 10.199-0.082 3.133-1.843 5.079-5.202 5.079-8.847v-634.798c0-3.707-2.007-7.127-5.222-8.929l-254.976-143.442c-1.556-0.881-3.277-1.311-5.018-1.311v0zM134.595 687.739v-611.287l234.476 131.891v611.308l-234.476-131.912zM635.843 48.681c-1.741 0-3.461 0.43-5.018 1.311l-254.956 143.442c-3.215 1.802-5.222 5.222-5.222 8.929v634.798c0 3.645 1.925 7.004 5.079 8.847s7.025 1.864 10.199 0.082l254.956-143.442c3.215-1.802 5.222-5.222 5.222-8.929v-634.798c0-3.645-1.946-7.004-5.079-8.847-1.597-0.942-3.4-1.393-5.181-1.393v0zM391.127 208.343l234.476-131.891v611.287l-234.476 131.912v-611.308zM637.399 48.681c-1.782 0-3.584 0.451-5.161 1.393-3.133 1.843-5.079 5.202-5.079 8.847v634.798c0 3.707 2.007 7.107 5.222 8.929l254.956 143.442c3.133 1.782 7.045 1.761 10.179-0.082s5.079-5.202 5.079-8.847v-634.798c0-3.707-2.007-7.127-5.222-8.929l-254.956-143.442c-1.556-0.881-3.277-1.311-5.018-1.311v0zM647.639 687.739v-611.287l234.476 131.891v611.308l-234.476-131.912z" />
<glyph unicode="&#xe911;" glyph-name="myc-marker" d="M498.115 28.201c-3.441 0-6.656 1.72-8.54 4.608-10.977 16.63-268.82 408.76-268.82 557.711 0 152.945 124.416 277.361 277.361 277.361s277.361-124.416 277.361-277.361c0-148.951-257.843-541.102-268.82-557.711-1.884-2.888-5.1-4.608-8.54-4.608v0zM498.115 847.401c-141.64 0-256.881-115.241-256.881-256.881 0-128.143 211.374-462.766 256.881-533.299 45.507 70.533 256.881 405.176 256.881 533.299 0 141.64-115.241 256.881-256.881 256.881v0zM498.115 473.395c-64.553 0-117.084 52.531-117.084 117.125 0 64.553 52.511 117.084 117.084 117.084s117.084-52.511 117.084-117.084c0-64.573-52.511-117.125-117.084-117.125v0zM498.115 687.124c-53.268 0-96.604-43.336-96.604-96.604 0-53.289 43.336-96.645 96.604-96.645s96.604 43.356 96.604 96.645c0 53.268-43.336 96.604-96.604 96.604v0z" />
<glyph unicode="&#xe912;" glyph-name="myc-boussole" d="M510.464 28.201c-231.506 0-419.84 188.334-419.84 419.84s188.334 419.84 419.84 419.84 419.84-188.334 419.84-419.84-188.334-419.84-419.84-419.84v0zM510.464 847.401c-220.201 0-399.36-179.159-399.36-399.36s179.159-399.36 399.36-399.36c220.201 0 399.36 179.159 399.36 399.36s-179.159 399.36-399.36 399.36v0zM293.294 220.631c-2.642 0-5.263 1.024-7.25 2.99-3.461 3.461-3.994 8.909-1.27 12.964l174.653 259.645c0.737 1.085 1.7 2.048 2.785 2.785l259.645 174.674c4.035 2.744 9.482 2.212 12.964-1.27 3.461-3.461 3.994-8.888 1.27-12.964l-174.653-259.645c-0.737-1.106-1.679-2.048-2.785-2.785l-259.645-174.674c-1.72-1.126-3.727-1.72-5.714-1.72v0zM475.341 483.144l-144.323-214.548 214.548 144.343 144.323 214.548-214.548-144.343zM510.464 683.52c-5.652 0-10.24 4.588-10.24 10.24v61.481c0 5.652 4.588 10.24 10.24 10.24s10.24-4.588 10.24-10.24v-61.481c0-5.652-4.588-10.24-10.24-10.24v0zM510.464 130.601c-5.652 0-10.24 4.588-10.24 10.24v61.481c0 5.652 4.588 10.24 10.24 10.24s10.24-4.588 10.24-10.24v-61.481c0-5.652-4.588-10.24-10.24-10.24v0zM817.664 437.801h-61.481c-5.652 0-10.24 4.588-10.24 10.24s4.588 10.24 10.24 10.24h61.481c5.652 0 10.24-4.588 10.24-10.24s-4.588-10.24-10.24-10.24v0zM264.724 437.801h-61.46c-5.652 0-10.24 4.588-10.24 10.24s4.588 10.24 10.24 10.24h61.46c5.652 0 10.24-4.588 10.24-10.24s-4.588-10.24-10.24-10.24v0z" />
<glyph unicode="&#xe913;" glyph-name="myc-envies" d="M812.585 28.201h-631.562c-5.652 0-10.24 4.588-10.24 10.24v481.034c0 5.652 4.588 10.24 10.24 10.24s10.24-4.588 10.24-10.24v-470.794h611.082v470.794c0 5.652 4.588 10.24 10.24 10.24s10.24-4.588 10.24-10.24v-481.034c0-5.652-4.588-10.24-10.24-10.24v0zM602.726 635.556h-105.923c-5.652 0-10.24 4.588-10.24 10.24v105.923c0 64.041 52.101 116.163 116.163 116.163s116.163-52.101 116.163-116.163-52.101-116.163-116.163-116.163v0zM507.044 656.036h95.683c52.756 0 95.683 42.926 95.683 95.683s-42.926 95.683-95.683 95.683-95.683-42.926-95.683-95.683v-95.683zM496.804 635.556h-105.923c-64.041 0-116.163 52.101-116.163 116.163s52.101 116.163 116.163 116.163 116.163-52.101 116.163-116.163v-105.923c0-5.652-4.588-10.24-10.24-10.24v0zM390.881 847.401c-52.756 0-95.683-42.926-95.683-95.683s42.926-95.683 95.683-95.683h95.683v95.683c0 52.756-42.926 95.683-95.683 95.683v0zM865.219 509.235h-736.829c-5.652 0-10.24 4.588-10.24 10.24v126.321c0 5.652 4.588 10.24 10.24 10.24h736.85c5.652 0 10.24-4.588 10.24-10.24v-126.321c-0.020-5.652-4.608-10.24-10.26-10.24v0zM138.629 529.715h716.37v105.841h-716.37v-105.841zM496.804 28.201c-5.652 0-10.24 4.588-10.24 10.24v607.355c0 5.652 4.588 10.24 10.24 10.24s10.24-4.588 10.24-10.24v-607.355c0-5.652-4.588-10.24-10.24-10.24v0z" />
<glyph unicode="&#xe914;" glyph-name="myc-voyages" d="M926.884 92.918h-767.468c-3.994 0-7.639 2.314-9.298 5.96-1.679 3.625-1.085 7.905 1.516 10.936 82.043 95.887 227.123 153.149 388.055 153.149 160.133 0 307.692-57.16 394.752-152.924 2.724-2.99 3.42-7.311 1.782-11.018s-5.284-6.103-9.339-6.103v0zM182.764 113.398h719.831c-84.767 81.203-218.317 129.085-362.906 129.085-145.224 0-276.603-47.882-356.925-129.085v0zM338.883 684.769c-3.809 0-7.475 2.13-9.236 5.796l-26.255 54.518c-2.458 5.1-0.307 11.203 4.792 13.66 5.1 2.437 11.203 0.307 13.66-4.792l26.255-54.518c2.458-5.1 0.307-11.203-4.792-13.66-1.413-0.696-2.929-1.004-4.424-1.004v0zM551.895 242.483c-3.809 0-7.455 2.13-9.216 5.796l-96.174 199.68c-2.458 5.1-0.307 11.203 4.792 13.66 5.12 2.437 11.203 0.307 13.66-4.792l96.154-199.68c2.458-5.1 0.328-11.223-4.772-13.66-1.413-0.696-2.949-1.004-4.444-1.004v0zM114.196 389.12c-3.809 0-7.455 2.13-9.236 5.775-2.458 5.1-0.328 11.223 4.751 13.681l590.93 285.962c5.1 2.417 11.203 0.328 13.681-4.751 2.458-5.1 0.348-11.203-4.751-13.681l-590.93-285.962c-1.434-0.696-2.97-1.024-4.444-1.024v0zM116.163 396.472c-3.809 0-7.475 2.13-9.236 5.796-20.664 42.906-7.516 98.304 37.048 155.976 43.028 55.685 110.653 107.52 190.464 145.961 169.738 81.777 335.708 77.23 377.897-10.342 2.458-5.1 0.328-11.203-4.772-13.66-4.997-2.437-11.203-0.348-13.66 4.792-36.598 75.94-193.864 76.288-350.577 0.778-76.984-37.089-142.029-86.815-183.132-140.022-39.588-51.22-51.937-99.021-34.796-134.574 2.458-5.1 0.307-11.223-4.792-13.66-1.434-0.717-2.949-1.044-4.444-1.044v0z" />
<glyph unicode="&#xe915;" glyph-name="myc-shopping" d="M613.458 637.87h-216.576c-5.652 0-10.24 4.588-10.24 10.24s4.588 10.24 10.24 10.24h216.576c5.652 0 10.24-4.588 10.24-10.24s-4.588-10.24-10.24-10.24v0zM679.752 637.87c-5.652 0-10.24 4.588-10.24 10.24v34.918c0 90.624-73.728 164.352-164.332 164.352-90.624 0-164.352-73.728-164.352-164.352v-34.918c0-5.652-4.588-10.24-10.24-10.24s-10.24 4.588-10.24 10.24v34.918c0 101.929 82.924 184.832 184.832 184.832s184.812-82.924 184.812-184.832v-34.918c0-5.652-4.567-10.24-10.24-10.24v0zM810.025 28.201h-609.71c-5.652 0-10.24 4.588-10.24 10.24v609.69c0 5.652 4.588 10.24 10.24 10.24h609.71c5.652 0 10.24-4.588 10.24-10.24v-609.69c0-5.652-4.588-10.24-10.24-10.24v0zM210.555 48.681h589.23v589.21h-589.23v-589.21z" />
<glyph unicode="&#xe916;" glyph-name="myc-sorties" d="M451.461 48.845c-5.652 0-10.24 4.588-10.24 10.24v330.24c0 5.652 4.588 10.24 10.24 10.24s10.24-4.588 10.24-10.24v-330.24c0-5.673-4.588-10.24-10.24-10.24v0zM580.137 48.845h-257.352c-5.652 0-10.24 4.588-10.24 10.24s4.588 10.24 10.24 10.24h257.352c5.652 0 10.24-4.588 10.24-10.24s-4.567-10.24-10.24-10.24v0zM451.461 379.085c-2.621 0-5.243 1.004-7.25 2.99l-326.615 326.615c-2.929 2.929-3.809 7.332-2.212 11.162 1.577 3.83 5.325 6.328 9.462 6.328h653.251c4.137 0 7.885-2.499 9.462-6.328s0.696-8.233-2.212-11.162l-326.656-326.615c-1.987-1.987-4.608-2.99-7.229-2.99v0zM149.565 705.679l301.896-301.875 301.916 301.875h-603.812zM778.097 584.643c-35.041 0-67.994 13.64-92.774 38.4l14.479 14.479c20.91-20.89 48.722-32.399 78.295-32.399 61.092 0 110.817 49.705 110.817 110.797 0 61.112-49.725 110.838-110.817 110.838-61.112 0-110.838-49.725-110.838-110.838h-20.48c0 72.417 58.9 131.318 131.318 131.318 72.397 0 131.297-58.9 131.297-131.318 0-72.397-58.9-131.277-131.297-131.277v0z" />
<glyph unicode="&#xe917;" glyph-name="myc-burger" d="M859.341 676.27h-698.839c-5.652 0-10.24 4.608-10.24 10.24 0 5.652 4.588 10.24 10.24 10.24h698.839c5.632 0 10.24-4.588 10.24-10.24 0-5.632-4.608-10.24-10.24-10.24v0zM859.341 468.439h-698.839c-5.652 0-10.24 4.608-10.24 10.24s4.588 10.24 10.24 10.24h698.839c5.632 0 10.24-4.608 10.24-10.24s-4.608-10.24-10.24-10.24v0zM859.341 259.379h-698.839c-5.652 0-10.24 4.608-10.24 10.24s4.588 10.24 10.24 10.24h698.839c5.632 0 10.24-4.608 10.24-10.24s-4.608-10.24-10.24-10.24v0z" />
<glyph unicode="&#xe918;" glyph-name="myc-actualites" d="M646.779 437.801h-459.817c-5.652 0-10.24 4.588-10.24 10.24v219.32c0 5.652 4.588 10.24 10.24 10.24h459.817c5.652 0 10.24-4.588 10.24-10.24v-219.32c0-5.652-4.588-10.24-10.24-10.24v0zM197.202 458.281h439.337v198.84h-439.337v-198.84zM640.041 334.090h-453.079c-5.652 0-10.24 4.588-10.24 10.24s4.588 10.24 10.24 10.24h453.079c5.652 0 10.24-4.588 10.24-10.24s-4.588-10.24-10.24-10.24v0zM640.041 230.359h-453.079c-5.652 0-10.24 4.588-10.24 10.24s4.588 10.24 10.24 10.24h453.079c5.652 0 10.24-4.588 10.24-10.24s-4.588-10.24-10.24-10.24v0zM850.268 110.121c-58.102 0-105.39 47.268-105.39 105.37v560.23c0 5.652 4.588 10.24 10.24 10.24s10.24-4.588 10.24-10.24v-560.23c0-46.797 38.072-84.89 84.91-84.89 46.797 0 84.89 38.072 84.89 84.89v560.23c0 5.652 4.588 10.24 10.24 10.24s10.24-4.588 10.24-10.24v-560.23c-0.020-58.102-47.268-105.37-105.37-105.37v0zM850.268 110.121h-676.536c-58.102 0-105.37 47.268-105.37 105.37v560.23c0 5.652 4.588 10.24 10.24 10.24h676.495c5.652 0 10.24-4.588 10.24-10.24v-560.23c0-46.797 38.072-84.89 84.91-84.89 5.652 0 10.24-4.588 10.24-10.24s-4.567-10.24-10.22-10.24v0zM88.863 765.481v-549.99c0-46.797 38.072-84.89 84.89-84.89h614.154c-26.071 19.21-43.028 50.094-43.028 84.89v549.99h-656.015z" />
<glyph unicode="&#xe919;" glyph-name="myc-infos" d="M498.115 28.16c-231.506 0-419.84 188.334-419.84 419.84s188.334 419.84 419.84 419.84 419.84-188.334 419.84-419.84-188.334-419.84-419.84-419.84v0zM498.115 847.36c-220.201 0-399.36-179.159-399.36-399.36s179.159-399.36 399.36-399.36c220.201 0 399.36 179.159 399.36 399.36s-179.159 399.36-399.36 399.36v0zM498.115 232.919c-5.652 0-10.24 4.588-10.24 10.24v279.921c0 5.652 4.588 10.24 10.24 10.24s10.24-4.588 10.24-10.24v-279.921c0-5.652-4.567-10.24-10.24-10.24v0zM498.115 512.84h-81.92c-5.652 0-10.24 4.588-10.24 10.24s4.588 10.24 10.24 10.24h81.92c5.652 0 10.24-4.588 10.24-10.24s-4.567-10.24-10.24-10.24v0zM580.035 232.919h-163.84c-5.652 0-10.24 4.588-10.24 10.24s4.588 10.24 10.24 10.24h163.84c5.652 0 10.24-4.588 10.24-10.24s-4.567-10.24-10.24-10.24v0zM512.389 638.607c0-7.861-6.373-14.234-14.234-14.234s-14.234 6.373-14.234 14.234c0 7.861 6.373 14.234 14.234 14.234s14.234-6.373 14.234-14.234zM498.156 614.113c-13.496 0-24.474 10.977-24.474 24.474s10.977 24.474 24.474 24.474 24.474-10.977 24.474-24.474-10.977-24.474-24.474-24.474v0zM498.156 642.601c-2.232 0-3.994-1.761-3.994-3.994 0-4.485 8.008-4.485 8.008 0 0 2.232-1.761 3.994-4.014 3.994v0z" />
<glyph unicode="&#xe91a;" glyph-name="myc-quitter" d="M510.464 28.16c-210.964 0-382.607 171.643-382.607 382.607 0 120.259 54.866 231.137 150.528 304.21 4.506 3.42 10.936 2.56 14.356-1.925 3.42-4.506 2.56-10.916-1.925-14.356-90.542-69.161-142.479-174.121-142.479-287.949 0-199.68 162.447-362.127 362.127-362.127s362.127 162.447 362.127 362.127c0 114.217-52.224 219.382-143.299 288.563-4.506 3.42-5.386 9.83-1.966 14.336 3.441 4.526 9.851 5.366 14.356 1.966 96.195-73.073 151.388-184.197 151.388-304.865-0.020-210.944-171.643-382.587-382.607-382.587v0zM510.464 400.527c-5.652 0-10.24 4.588-10.24 10.24v446.833c0 5.652 4.588 10.24 10.24 10.24s10.24-4.588 10.24-10.24v-446.833c0-5.673-4.588-10.24-10.24-10.24v0z" />
<glyph unicode="&#xe91b;" glyph-name="myc-aide" d="M496.804 28.16c-231.506 0-419.84 188.334-419.84 419.84s188.334 419.84 419.84 419.84 419.84-188.334 419.84-419.84-188.334-419.84-419.84-419.84v0zM496.804 847.36c-220.201 0-399.36-179.159-399.36-399.36s179.159-399.36 399.36-399.36c220.201 0 399.36 179.159 399.36 399.36s-179.159 399.36-399.36 399.36v0zM496.804 232.96c-118.579 0-215.040 96.461-215.040 215.040s96.461 215.040 215.040 215.040c118.579 0 215.040-96.461 215.040-215.040s-96.461-215.040-215.040-215.040v0zM496.804 642.56c-107.274 0-194.56-87.286-194.56-194.56s87.286-194.56 194.56-194.56 194.56 87.286 194.56 194.56-87.286 194.56-194.56 194.56v0zM292.004 437.76h-204.8c-5.652 0-10.24 4.588-10.24 10.24s4.588 10.24 10.24 10.24h204.8c5.652 0 10.24-4.588 10.24-10.24s-4.588-10.24-10.24-10.24v0zM906.404 437.76h-204.8c-5.652 0-10.24 4.588-10.24 10.24s4.588 10.24 10.24 10.24h204.8c5.652 0 10.24-4.588 10.24-10.24s-4.588-10.24-10.24-10.24v0zM496.804 642.56c-5.652 0-10.24 4.588-10.24 10.24v204.8c0 5.652 4.588 10.24 10.24 10.24s10.24-4.588 10.24-10.24v-204.8c0-5.652-4.588-10.24-10.24-10.24v0zM496.804 28.16c-5.652 0-10.24 4.588-10.24 10.24v204.8c0 5.652 4.588 10.24 10.24 10.24s10.24-4.588 10.24-10.24v-204.8c0-5.652-4.588-10.24-10.24-10.24v0z" />
<glyph unicode="&#xe91c;" glyph-name="myc-controles" d="M713.728 223.601h-433.828c-123.187 0-223.416 100.229-223.416 223.396 0 123.208 100.229 223.437 223.416 223.437h433.828c123.187 0 223.396-100.229 223.396-223.437 0-123.167-100.229-223.396-223.396-223.396v0zM279.9 649.953c-111.903 0-202.936-91.054-202.936-202.957s91.034-202.916 202.936-202.916h433.828c111.903 0 202.916 91.013 202.916 202.916s-91.013 202.957-202.916 202.957h-433.828zM279.9 335.319c-62.116 0-112.64 50.545-112.64 112.64 0 62.116 50.524 112.64 112.64 112.64s112.64-50.524 112.64-112.64c0-62.095-50.524-112.64-112.64-112.64v0zM279.9 540.119c-50.811 0-92.16-41.349-92.16-92.16s41.349-92.16 92.16-92.16 92.16 41.349 92.16 92.16-41.349 92.16-92.16 92.16v0z" />
<glyph unicode="&#xe91d;" glyph-name="myc-factures" d="M848.364 118.395h-697.446c-39.24 0-65.577 26.337-65.577 65.556v487.137c0 5.652 4.588 10.24 10.24 10.24s10.24-4.588 10.24-10.24v-487.117c0-27.791 17.285-45.076 45.097-45.076h697.446c5.652 0 10.24-4.588 10.24-10.24s-4.588-10.26-10.24-10.26v0zM914.78 295.526h-221.43c-5.652 0-10.24 4.588-10.24 10.24v154.952c0 5.652 4.588 10.24 10.24 10.24h221.43c5.652 0 10.24-4.588 10.24-10.24v-154.952c0-5.673-4.588-10.24-10.24-10.24v0zM703.59 316.006h200.95v134.472h-200.95v-134.472zM848.364 605.471h-687.309c-41.759 0-75.715 33.976-75.715 75.715s33.976 75.715 75.715 75.715h618.025c5.652 0 10.24-4.588 10.24-10.24s-4.588-10.24-10.24-10.24h-618.025c-30.454 0-55.235-24.781-55.235-55.235s24.781-55.235 55.235-55.235h687.309c5.652 0 10.24-4.588 10.24-10.24s-4.588-10.24-10.24-10.24v0zM848.364 450.478c-5.652 0-10.24 4.588-10.24 10.24v154.993c0 5.652 4.588 10.24 10.24 10.24s10.24-4.588 10.24-10.24v-154.993c0-5.652-4.588-10.24-10.24-10.24v0zM848.364 118.395c-5.652 0-10.24 4.588-10.24 10.24v177.111c0 5.652 4.588 10.24 10.24 10.24s10.24-4.588 10.24-10.24v-177.111c0-5.652-4.588-10.24-10.24-10.24v0z" />
<glyph unicode="&#xe91e;" glyph-name="myc-preferences" d="M512 619.807c-45.507 0-82.514 37.028-82.514 82.514s37.007 82.514 82.514 82.514 82.514-37.028 82.514-82.514-37.007-82.514-82.514-82.514v0zM512 764.355c-34.202 0-62.034-27.832-62.034-62.034s27.832-62.034 62.034-62.034c34.202 0 62.034 27.832 62.034 62.034s-27.832 62.034-62.034 62.034v0zM849.326 109.158c-45.507 0-82.514 37.028-82.514 82.514s37.028 82.514 82.514 82.514 82.514-37.028 82.514-82.514-37.028-82.514-82.514-82.514v0zM849.326 253.727c-34.202 0-62.034-27.832-62.034-62.034s27.832-62.034 62.034-62.034 62.034 27.832 62.034 62.034-27.832 62.034-62.034 62.034v0zM174.674 365.65c-45.507 0-82.514 37.028-82.514 82.514s37.028 82.514 82.514 82.514 82.514-37.028 82.514-82.514-37.007-82.514-82.514-82.514v0zM174.674 510.198c-34.202 0-62.034-27.832-62.034-62.034s27.832-62.034 62.034-62.034 62.034 27.832 62.034 62.034c0.020 34.202-27.812 62.034-62.034 62.034v0zM174.674 628.367c-5.652 0-10.24 4.588-10.24 10.24v135.987c0 5.652 4.588 10.24 10.24 10.24s10.24-4.588 10.24-10.24v-136.008c0-5.652-4.567-10.22-10.24-10.22v0zM174.674 109.158c-5.652 0-10.24 4.588-10.24 10.24v136.049c0 5.652 4.588 10.24 10.24 10.24s10.24-4.588 10.24-10.24v-136.049c0-5.652-4.567-10.24-10.24-10.24v0zM512 109.158c-5.652 0-10.24 4.588-10.24 10.24v390.164c0 5.652 4.588 10.24 10.24 10.24s10.24-4.588 10.24-10.24v-390.164c0-5.652-4.588-10.24-10.24-10.24v0zM849.326 374.19c-5.652 0-10.24 4.588-10.24 10.24v390.164c0 5.652 4.588 10.24 10.24 10.24s10.24-4.588 10.24-10.24v-390.164c0-5.652-4.588-10.24-10.24-10.24v0z" />
<glyph unicode="&#xe91f;" glyph-name="myc-restaurants" d="M522.527 570.511c-59.535 0-107.95 48.415-107.95 107.93v179.2c0 5.652 4.588 10.24 10.24 10.24s10.24-4.588 10.24-10.24v-179.2c0-48.21 39.24-87.45 87.47-87.45 48.21 0 87.45 39.24 87.45 87.45v179.2c0 5.652 4.588 10.24 10.24 10.24 5.632 0 10.24-4.588 10.24-10.24v-179.2c-0.041-59.515-48.456-107.93-107.93-107.93v0zM220.221 28.201c-5.652 0-10.24 4.608-10.24 10.24v542.31c0 5.652 4.588 10.24 10.24 10.24s10.24-4.588 10.24-10.24v-542.31c0-5.632-4.588-10.24-10.24-10.24v0zM522.281 28.201v0c-5.652 0-10.24 4.608-10.24 10.24l0.225 542.31c0 5.652 4.588 10.24 10.24 10.24v0c5.632 0 10.24-4.588 10.24-10.24l-0.246-542.31c0.020-5.632-4.588-10.24-10.22-10.24v0zM887.951 28.201c-5.652 0-10.24 4.608-10.24 10.24v542.31c0 5.652 4.588 10.24 10.24 10.24 5.632 0 10.24-4.588 10.24-10.24v-542.31c0-5.632-4.567-10.24-10.24-10.24v0zM887.951 339.763h-138.117c-5.652 0-10.24 4.608-10.24 10.24v163.635c0 208.753 78.152 354.243 148.357 354.243 5.632 0 10.24-4.588 10.24-10.24v-507.638c0-5.673-4.567-10.24-10.24-10.24v0zM760.074 360.243h117.637v485.581c-51.282-15.319-117.637-141.435-117.637-332.186v-153.395zM220.221 570.511c-59.576 0-108.052 66.703-108.052 148.685s48.476 148.685 108.052 148.685 108.052-66.703 108.052-148.685-48.476-148.685-108.052-148.685v0zM220.221 847.401c-48.292 0-87.572-57.508-87.572-128.205s39.281-128.205 87.572-128.205 87.572 57.508 87.572 128.205c0 70.697-39.281 128.205-87.572 128.205v0zM522.281 664.924c-5.652 0-10.24 4.588-10.24 10.24v182.477c0 5.652 4.588 10.24 10.24 10.24 5.632 0 10.24-4.588 10.24-10.24v-182.477c0-5.673-4.608-10.24-10.24-10.24v0z" />
<glyph unicode="&#xe920;" glyph-name="myc-logo" d="M541.45 62.034c-210.964 0-382.607 171.622-382.607 382.566 0 210.964 171.622 382.607 382.607 382.607 120.238 0 231.137-54.866 304.21-150.508 3.441-4.506 2.58-10.916-1.925-14.356-4.485-3.4-10.895-2.58-14.356 1.925-69.181 90.542-174.121 142.479-287.949 142.479-199.68 0-362.127-162.447-362.127-362.127 0-199.66 162.447-362.086 362.127-362.086 114.217 0 219.402 52.224 288.563 143.278 3.42 4.485 9.83 5.366 14.356 1.966 4.506-3.42 5.386-9.851 1.966-14.356-73.073-96.195-184.197-151.388-304.865-151.388v0zM437.678 450.806c-2.621 0-5.243 1.004-7.25 2.99-3.994 3.994-3.994 10.486 0 14.479l101.888 101.868c3.994 3.994 10.486 3.994 14.479 0s3.994-10.486 0-14.479l-101.888-101.868c-1.987-1.987-4.608-2.99-7.229-2.99v0zM436.572 450.929c-2.621 0-5.243 1.004-7.25 2.99l-101.868 101.888c-3.994 3.994-3.994 10.486 0 14.479s10.486 3.994 14.479 0l101.868-101.888c3.994-3.994 3.994-10.486 0-14.479-1.987-2.007-4.608-2.99-7.229-2.99v0zM671.314 450.806c-2.621 0-5.243 1.004-7.25 2.99-3.994 3.994-3.994 10.486 0 14.479l101.888 101.868c3.994 3.994 10.486 3.994 14.479 0s3.994-10.486 0-14.479l-101.888-101.868c-1.987-1.987-4.608-2.99-7.229-2.99v0zM670.208 450.929c-2.621 0-5.243 1.004-7.25 2.99l-101.868 101.888c-3.994 3.994-3.994 10.486 0 14.479s10.486 3.994 14.479 0l101.868-101.888c3.994-3.994 3.994-10.486 0-14.479-2.007-2.007-4.608-2.99-7.229-2.99v0zM540.385 306.565c-5.652 0-10.24 4.588-10.24 10.24v247.030c0 5.652 4.588 10.24 10.24 10.24s10.24-4.588 10.24-10.24v-247.030c0-5.673-4.588-10.24-10.24-10.24v0zM333.66 306.565c-5.652 0-10.24 4.588-10.24 10.24v247.030c0 5.652 4.588 10.24 10.24 10.24s10.24-4.588 10.24-10.24v-247.030c0-5.673-4.588-10.24-10.24-10.24v0zM671.724 306.565c-5.652 0-10.24 4.588-10.24 10.24v144.63c0 5.652 4.588 10.24 10.24 10.24s10.24-4.588 10.24-10.24v-144.63c0-5.673-4.588-10.24-10.24-10.24v0z" />
<glyph unicode="&#xe921;" glyph-name="myc-evenements" d="M575.037 733.164h-138.65c-5.652 0-10.24 4.588-10.24 10.24s4.588 10.24 10.24 10.24h138.65c5.652 0 10.24-4.588 10.24-10.24s-4.588-10.24-10.24-10.24v0zM852.357 559.923h-693.248c-5.652 0-10.24 4.588-10.24 10.24v173.24c0 5.652 4.588 10.24 10.24 10.24h118.825c5.652 0 10.24-4.588 10.24-10.24s-4.588-10.24-10.24-10.24h-108.585v-152.76h672.788v152.76h-108.605c-5.652 0-10.24 4.588-10.24 10.24s4.588 10.24 10.24 10.24h118.845c5.652 0 10.24-4.588 10.24-10.24v-173.24c-0.020-5.673-4.588-10.24-10.26-10.24v0zM357.151 645.591c-5.652 0-10.24 4.588-10.24 10.24v171.377c0 5.652 4.588 10.24 10.24 10.24s10.24-4.588 10.24-10.24v-171.356c0-5.673-4.567-10.26-10.24-10.26v0zM505.713 185.037c-5.652 0-10.24 4.588-10.24 10.24v194.232c0 5.652 4.588 10.24 10.24 10.24s10.24-4.588 10.24-10.24v-194.232c0-5.652-4.567-10.24-10.24-10.24v0zM602.849 282.153h-194.232c-5.652 0-10.24 4.588-10.24 10.24s4.588 10.24 10.24 10.24h194.232c5.652 0 10.24-4.588 10.24-10.24s-4.588-10.24-10.24-10.24v0zM654.275 645.591c-5.652 0-10.24 4.588-10.24 10.24v171.377c0 5.652 4.588 10.24 10.24 10.24s10.24-4.588 10.24-10.24v-171.356c0-5.673-4.567-10.26-10.24-10.26v0zM852.357 58.757h-693.248c-5.652 0-10.24 4.588-10.24 10.24v424.202c0 5.652 4.588 10.24 10.24 10.24s10.24-4.588 10.24-10.24v-413.962h672.788v413.962c0 5.652 4.588 10.24 10.24 10.24s10.24-4.588 10.24-10.24v-424.202c-0.020-5.652-4.588-10.24-10.26-10.24v0z" />
<glyph unicode="&#xe922;" glyph-name="myc-sports" d="M296.612 58.88c-71.987 0-128.020 14.766-153.743 40.489-37.417 37.396-50.524 136.929-32.645 247.624 12.431 76.943 51.057 223.805 170.148 342.876 131.236 131.215 311.685 177.971 436.818 177.971 71.967 0 128-14.746 153.723-40.468 74.588-74.588 58.020-395.018-137.503-590.52-131.215-131.215-311.665-177.971-436.797-177.971v0zM717.189 847.36c-121.016 0-295.526-45.179-422.318-171.991-115.016-114.995-152.371-257.147-164.393-331.653-18.534-114.729-0.492-202.486 26.89-229.888 21.258-21.238 74.629-34.468 139.244-34.468 121.016 0 295.526 45.179 422.298 171.95 194.54 194.54 197.263 501.801 137.503 561.562-21.258 21.279-74.609 34.488-139.223 34.488v0zM367.78 313.999c-2.621 0-5.243 1.004-7.25 2.99-3.994 3.994-3.994 10.486 0 14.479l278.221 278.221c3.994 3.994 10.486 3.994 14.479 0s3.994-10.486 0-14.479l-278.2-278.2c-2.007-2.007-4.628-3.011-7.25-3.011v0zM724.541 670.761c-2.621 0-5.243 1.004-7.25 2.99-3.994 3.994-3.994 10.486 0 14.479l139.121 139.121c3.994 3.994 10.486 3.994 14.479 0s3.994-10.486 0-14.479l-139.121-139.121c-1.987-1.987-4.608-2.99-7.229-2.99v0zM150.118 96.358c-2.621 0-5.243 1.004-7.25 2.99-3.994 3.994-3.994 10.486 0 14.479l139.121 139.080c3.994 3.994 10.486 3.994 14.479 0s3.994-10.486 0-14.479l-139.121-139.080c-1.987-1.987-4.608-2.99-7.229-2.99v0zM489.083 296.202c-2.621 0-5.243 1.004-7.25 2.99l-139.121 139.1c-3.994 3.994-3.994 10.486 0 14.479s10.486 3.994 14.479 0l139.121-139.1c3.994-3.994 3.994-10.486 0-14.479-1.987-1.987-4.608-2.99-7.229-2.99v0zM576.43 383.57c-2.621 0-5.243 1.004-7.25 2.99l-139.1 139.1c-3.994 3.994-3.994 10.486 0 14.479s10.486 3.994 14.479 0l139.121-139.1c3.994-3.994 3.994-10.486 0-14.479-2.007-2.007-4.628-2.99-7.25-2.99v0zM663.798 470.938c-2.621 0-5.243 1.004-7.25 2.99l-139.1 139.121c-3.994 3.994-3.994 10.486 0 14.479s10.486 3.994 14.479 0l139.1-139.121c3.994-3.994 3.994-10.486 0-14.479-1.987-2.007-4.608-2.99-7.229-2.99v0z" />
<glyph unicode="&#xe923;" glyph-name="myc-tickets" d="M393.196 57.876c-2.621 0-5.243 1.004-7.25 2.99l-85.852 85.852c-3.994 3.994-3.994 10.486 0 14.479 26.010 26.030 26.010 68.342 0 94.351-25.211 25.17-69.12 25.211-94.331 0-3.83-3.85-10.629-3.85-14.479 0l-85.873 85.852c-1.925 1.966-3.011 4.567-3.011 7.27s1.085 5.325 2.99 7.25l507.924 507.924c3.994 3.994 10.486 3.994 14.479 0l85.852-85.852c3.994-3.994 3.994-10.486 0-14.479-26.010-26.010-26.010-68.342 0-94.351 25.17-25.17 69.14-25.19 94.351 0 3.994 3.994 10.486 3.994 14.479 0l85.852-85.852c3.994-3.994 3.994-10.486 0-14.479l-507.884-507.945c-2.007-2.007-4.628-3.011-7.25-3.011v0zM321.393 154.399l71.803-71.803 493.445 493.445-71.803 71.803c-15.319-12.145-34.161-18.739-54.006-18.739-23.306 0-45.199 9.073-61.665 25.559-31.539 31.56-33.792 81.469-6.82 115.651l-71.803 71.803-493.425-493.445 71.803-71.803c15.319 12.145 34.14 18.719 53.985 18.719 23.286 0 45.199-9.052 61.665-25.539 31.56-31.539 33.833-81.449 6.82-115.651v0zM454.205 214.569c-2.621 0-5.243 1.004-7.25 2.99l-184.73 184.73c-3.994 3.994-3.994 10.486 0 14.479s10.486 3.994 14.479 0l184.73-184.73c3.994-3.994 3.994-10.486 0-14.479-1.987-2.007-4.608-2.99-7.229-2.99v0zM744.468 504.791c-2.621 0-5.243 1.004-7.25 2.99l-184.75 184.73c-3.994 3.994-3.994 10.486 0 14.479s10.486 3.994 14.479 0l184.75-184.73c3.994-3.994 3.994-10.486 0-14.479-2.007-1.987-4.608-2.99-7.229-2.99v0zM506.88 390.205c-37.13 0-67.359 30.208-67.359 67.338s30.228 67.338 67.359 67.338 67.359-30.208 67.359-67.338c0-37.151-30.228-67.338-67.359-67.338v0zM506.88 504.402c-25.846 0-46.879-21.012-46.879-46.858s21.033-46.858 46.879-46.858c25.846 0 46.879 21.012 46.879 46.858s-21.033 46.858-46.879 46.858v0z" />
<glyph unicode="&#xe924;" glyph-name="myc-transports" d="M809.431 328.622h-71.168c-11.244 0-20.378 9.134-20.378 20.378v41.964c0 11.223 9.134 20.357 20.378 20.357h71.168c11.244 0 20.378-9.134 20.378-20.357v-41.964c0.020-11.244-9.134-20.378-20.378-20.378v0zM809.431 349.102v0zM809.349 390.963l-71.066-0.123 0.102-41.841 70.963 0.102v41.861zM278.651 328.622h-71.168c-11.244 0-20.378 9.134-20.378 20.378v41.964c0 11.223 9.134 20.357 20.378 20.357h71.168c11.244 0 20.398-9.134 20.398-20.357v-41.964c0-11.244-9.155-20.378-20.398-20.378v0zM278.651 349.102v0c0 0 0 0 0 0v0zM278.569 390.963l-71.066-0.123 0.102-41.841 70.963 0.102v41.861zM379.761 746.557c-0.614 0-1.27 0.061-1.884 0.164-5.55 1.044-9.236 6.39-8.192 11.94l7.27 38.851c2.068 11.018 11.694 19.005 22.897 19.005h212.029c11.203 0 20.849-7.987 22.897-19.005l7.25-38.871c1.044-5.55-2.621-10.916-8.172-11.94-5.509-0.963-10.895 2.621-11.94 8.192l-7.25 38.851c-0.266 1.352-1.434 2.314-2.785 2.314h-212.029c-1.352 0-2.519-0.963-2.765-2.294l-7.27-38.851c-0.922-4.936-5.222-8.356-10.056-8.356v0zM862.29 182.968h-707.625c-27.976 0-50.749 22.774-50.749 50.77v167.055c0 50.299 40.94 91.238 91.238 91.238h626.647c50.299 0 91.238-40.94 91.238-91.238v-167.055c0-27.996-22.774-50.77-50.749-50.77v0zM195.154 471.532c-39.014 0-70.758-31.744-70.758-70.758v-167.055c0-16.691 13.578-30.29 30.269-30.29h707.625c16.691 0 30.29 13.578 30.29 30.29v167.055c0 39.014-31.744 70.758-70.758 70.758h-626.668zM853.791 247.357h-690.647c-5.652 0-10.24 4.588-10.24 10.24s4.588 10.24 10.24 10.24h690.668c5.652 0 10.24-4.588 10.24-10.24s-4.588-10.24-10.26-10.24v0zM302.776 76.308h-119.398c-16.814 0-30.495 13.66-30.495 30.454v86.446h20.48v-86.446c0-5.509 4.485-9.974 10.015-9.974h119.398c5.509 0 9.994 4.485 9.994 9.974v86.446h20.48v-86.446c0-16.794-13.681-30.454-30.474-30.454v0zM833.556 76.308h-119.398c-16.794 0-30.474 13.66-30.474 30.454v86.446h20.48v-86.446c0-5.509 4.485-9.974 9.994-9.974h119.398c5.53 0 9.994 4.485 9.994 9.974v86.446h20.48v-86.446c0-16.794-13.681-30.454-30.474-30.454v0zM186.593 518.697c-1.434 0-2.908 0.307-4.301 0.942-5.12 2.376-7.352 8.458-4.977 13.599l63.693 137.441c13.292 28.426 42.127 46.797 73.482 46.797h387.953c31.355 0 60.191-18.35 73.503-46.756l64.307-137.441c2.396-5.12 0.184-11.223-4.936-13.619-5.079-2.355-11.203-0.184-13.619 4.936l-64.307 137.441c-9.912 21.238-31.498 34.959-54.948 34.959h-387.973c-23.45 0-44.995-13.722-54.907-34.959l-63.672-137.421c-1.741-3.707-5.427-5.919-9.298-5.919v0zM186.593 518.697h-104.673c-5.652 0-10.24 4.588-10.24 10.24v24.31c0 27.996 22.774 50.77 50.77 50.77h36.27c5.652 0 10.24-4.588 10.24-10.24s-4.588-10.24-10.24-10.24h-36.27c-16.712 0-30.29-13.599-30.29-30.29v-14.070h94.433c5.652 0 10.24-4.588 10.24-10.24s-4.567-10.24-10.24-10.24v0zM935.67 518.697h-104.694c-5.652 0-10.24 4.588-10.24 10.24s4.588 10.24 10.24 10.24h94.454v14.070c0 16.712-13.599 30.29-30.31 30.29h-36.27c-5.652 0-10.24 4.588-10.24 10.24s4.588 10.24 10.24 10.24h36.27c28.017 0 50.79-22.774 50.79-50.77v-24.31c0-5.652-4.588-10.24-10.24-10.24v0z" />
<glyph unicode="&#xe925;" glyph-name="myc-location" d="M353.792 65.167c-137.646 0-249.61 111.985-249.61 249.61s111.964 249.61 249.61 249.61c17.183 0 41.861-4.342 57.754-7.557l326.574 286.31c6.328 5.489 14.316 8.479 22.569 8.479h95.744c18.842 0 34.181-15.34 34.181-34.181v-111.964c0-3.113 0.102-5.509 0.164-7.311 0.184-4.71 0.389-9.585-3.85-13.373-4.116-3.686-8.868-2.949-11.694-2.499-1.536 0.246-3.85 0.614-7.209 0.614h-76.227v-100.966c-0.492-15.892-3.584-21.34-19.948-22.446-0.225-0.020-2.437-0.164-2.662-0.164h-76.247v-100.946c0-3.871-2.191-7.414-5.652-9.155l-113.644-56.812c12.165-23.388 20.46-60.744 20.46-94.638 0.020-114.36-89.866-232.612-240.312-232.612v0zM353.792 543.887c-126.341 0-229.13-102.789-229.13-229.13s102.789-229.13 229.13-229.13c137.605 0 219.832 107.868 219.832 212.111 0 39.854-11.735 77.578-22.774 92.836-1.761 2.437-2.355 5.53-1.638 8.438s2.683 5.386 5.366 6.717l117.903 58.941v104.858c0 5.652 4.588 10.24 10.24 10.24h86.487c0.778 0.061 1.454 0.102 2.068 0.143 0.020 0.492 0.020 1.004 0.041 1.577l0.020 111.616c0 5.652 4.588 10.24 10.24 10.24h86.467c0.737 0 1.454 0 2.13-0.020-0.020 0.676-0.020 1.372-0.020 2.13v111.964c0 7.557-6.144 13.701-13.701 13.701h-95.744c-3.318 0-6.533-1.229-9.073-3.42l-330.404-289.669c-2.417-2.109-5.714-2.99-8.868-2.314-11.633 2.458-40.653 8.172-58.573 8.172v0zM312.074 188.703c-46.51 0-84.357 37.847-84.357 84.357s37.847 84.378 84.357 84.378 84.357-37.868 84.357-84.378-37.827-84.357-84.357-84.357v0zM312.074 336.957c-35.226 0-63.877-28.652-63.877-63.898 0-35.226 28.652-63.877 63.877-63.877s63.877 28.652 63.877 63.877c0 35.246-28.652 63.898-63.877 63.898v0zM464.876 492.687c-2.847 0-5.673 1.188-7.7 3.482-3.727 4.26-3.297 10.711 0.942 14.459l279.593 245.105 13.517-15.401-279.593-245.105c-1.946-1.7-4.362-2.54-6.758-2.54v0z" />
<glyph unicode="&#xe926;" glyph-name="myc-immobilier" d="M901.12 48.927h-788.48c-5.652 0-10.24 4.588-10.24 10.24s4.588 10.24 10.24 10.24h788.48c5.652 0 10.24-4.588 10.24-10.24s-4.588-10.24-10.24-10.24v0zM618.947 144.404c-5.652 0-10.24 4.588-10.24 10.24v323.932h-422.093v-323.932c0-5.652-4.588-10.24-10.24-10.24s-10.24 4.588-10.24 10.24v334.172c0 5.652 4.588 10.24 10.24 10.24h442.552c5.652 0 10.24-4.588 10.24-10.24v-334.172c0.020-5.673-4.567-10.24-10.22-10.24v0zM840.172 144.404c-5.652 0-10.24 4.588-10.24 10.24v547.676h-422.052v-157.635c0-5.652-4.588-10.24-10.24-10.24s-10.24 4.588-10.24 10.24v167.875c0 5.652 4.588 10.24 10.24 10.24h442.532c5.652 0 10.24-4.588 10.24-10.24v-557.916c0-5.673-4.567-10.24-10.24-10.24v0zM287.007 354.324c-5.652 0-10.24 4.588-10.24 10.24v27.668c0 5.652 4.588 10.24 10.24 10.24s10.24-4.588 10.24-10.24v-27.668c0-5.673-4.588-10.24-10.24-10.24v0zM397.64 354.324c-5.652 0-10.24 4.588-10.24 10.24v27.668c0 5.652 4.588 10.24 10.24 10.24s10.24-4.588 10.24-10.24v-27.668c0-5.673-4.588-10.24-10.24-10.24v0zM508.273 354.324c-5.652 0-10.24 4.588-10.24 10.24v27.668c0 5.652 4.588 10.24 10.24 10.24s10.24-4.588 10.24-10.24v-27.668c0-5.673-4.567-10.24-10.24-10.24v0zM508.273 578.068c-5.652 0-10.24 4.588-10.24 10.24v27.668c0 5.652 4.588 10.24 10.24 10.24s10.24-4.588 10.24-10.24v-27.668c0-5.673-4.567-10.24-10.24-10.24v0zM618.947 578.068c-5.652 0-10.24 4.588-10.24 10.24v27.668c0 5.652 4.588 10.24 10.24 10.24s10.24-4.588 10.24-10.24v-27.668c0-5.673-4.588-10.24-10.24-10.24v0zM729.539 578.068c-5.652 0-10.24 4.588-10.24 10.24v27.668c0 5.652 4.588 10.24 10.24 10.24s10.24-4.588 10.24-10.24v-27.668c0-5.673-4.588-10.24-10.24-10.24v0zM729.539 467.64c-5.652 0-10.24 4.588-10.24 10.24v27.648c0 5.652 4.588 10.24 10.24 10.24s10.24-4.588 10.24-10.24v-27.648c0-5.652-4.588-10.24-10.24-10.24v0zM729.539 357.192c-5.652 0-10.24 4.588-10.24 10.24v27.689c0 5.652 4.588 10.24 10.24 10.24s10.24-4.588 10.24-10.24v-27.689c0-5.652-4.588-10.24-10.24-10.24v0zM729.539 246.784c-5.652 0-10.24 4.588-10.24 10.24v27.668c0 5.652 4.588 10.24 10.24 10.24s10.24-4.588 10.24-10.24v-27.668c0-5.673-4.588-10.24-10.24-10.24v0zM508.355 144.404c-5.652 0-10.24 4.588-10.24 10.24v116.92h-200.888v-116.92c0-5.652-4.588-10.24-10.24-10.24s-10.24 4.588-10.24 10.24v127.16c0 5.652 4.588 10.24 10.24 10.24h221.368c5.652 0 10.24-4.588 10.24-10.24v-127.16c0-5.673-4.567-10.24-10.24-10.24v0zM618.947 707.953c-5.652 0-10.24 4.588-10.24 10.24v139.407c0 5.652 4.588 10.24 10.24 10.24s10.24-4.588 10.24-10.24v-139.407c0-5.652-4.588-10.24-10.24-10.24v0zM508.355 207.974h-221.348c-5.652 0-10.24 4.588-10.24 10.24s4.588 10.24 10.24 10.24h221.368c5.652 0 10.24-4.588 10.24-10.24s-4.588-10.24-10.26-10.24v0z" />
<glyph unicode="&#xe927;" glyph-name="myc-multiple" d="M513.905 400.404c-27.525 0-53.473 6.103-73.093 17.162l-295.342 166.707c-21.463 12.124-33.28 28.938-33.28 47.35 0 18.391 11.817 35.205 33.28 47.329l295.342 166.728c39.219 22.159 106.947 22.139 146.186 0l295.363-166.728c21.463-12.104 33.28-28.918 33.28-47.329s-11.817-35.246-33.28-47.35l-295.363-166.728c-19.62-11.039-45.568-17.142-73.093-17.142v0zM513.905 842.363c-24.044 0-46.449-5.161-63.037-14.52l-295.342-166.728c-14.746-8.315-22.856-18.78-22.856-29.491s8.11-21.176 22.876-29.512l295.322-166.728c33.198-18.719 92.897-18.719 126.054 0l295.363 166.728c14.766 8.335 22.876 18.801 22.876 29.512s-8.11 21.176-22.876 29.491l-295.363 166.728c-16.589 9.359-38.953 14.52-63.017 14.52v0zM513.905 225.587c-26.46 0-52.941 5.673-73.093 17.060l-295.342 166.707c-21.463 12.104-33.28 28.918-33.28 47.329s11.817 35.226 33.28 47.35c4.936 2.765 11.162 1.044 13.967-3.871 2.785-4.936 1.044-11.182-3.871-13.967-14.746-8.335-22.876-18.801-22.876-29.512s8.11-21.176 22.856-29.491l295.342-166.728c34.181-19.313 91.894-19.313 126.054 0l295.363 166.728c14.766 8.315 22.876 18.78 22.876 29.491s-8.11 21.176-22.876 29.512c-4.915 2.785-6.656 9.032-3.871 13.947 2.785 4.956 9.011 6.656 13.967 3.891 21.463-12.124 33.28-28.938 33.28-47.35s-11.817-35.226-33.28-47.329l-295.363-166.728c-20.193-11.366-46.653-17.039-73.134-17.039v0zM513.905 54.006c-26.46 0-52.941 5.673-73.093 17.060l-295.342 166.728c-21.463 12.104-33.28 28.918-33.28 47.329 0 18.391 11.817 35.226 33.28 47.35 4.936 2.785 11.162 1.044 13.967-3.871 2.785-4.915 1.044-11.182-3.871-13.967-14.746-8.315-22.876-18.801-22.876-29.491s8.11-21.156 22.856-29.471l295.342-166.748c34.181-19.313 91.894-19.313 126.054 0l295.363 166.748c14.766 8.315 22.876 18.78 22.876 29.471s-8.11 21.176-22.876 29.491c-4.915 2.785-6.656 9.032-3.871 13.967s9.011 6.656 13.967 3.871c21.463-12.124 33.28-28.938 33.28-47.35s-11.817-35.226-33.28-47.329l-295.363-166.748c-20.193-11.366-46.653-17.039-73.134-17.039v0z" />
<glyph unicode="&#xe928;" glyph-name="myc-services" d="M516.751 622.141c-5.652 0-10.24 4.588-10.24 10.24v67.891c0 5.652 4.588 10.24 10.24 10.24 32.092 0 58.204 26.092 58.204 58.184 0 32.072-26.092 58.184-58.204 58.184-32.072 0-58.184-26.092-58.184-58.184 0-5.652-4.588-10.24-10.24-10.24s-10.24 4.588-10.24 10.24c0 43.377 35.287 78.664 78.664 78.664s78.684-35.287 78.684-78.664c0-39.916-29.88-72.97-68.444-78.008v-58.307c0-5.652-4.567-10.24-10.24-10.24v0zM853.156 335.012c-5.652 0-10.24 4.588-10.24 10.24s4.588 10.24 10.24 10.24c32.092 0 58.204 26.092 58.204 58.163 0 23.941-14.377 45.158-36.618 54.067l-362.025 155.238c-5.181 2.232-7.598 8.253-5.366 13.455s8.233 7.598 13.455 5.366l361.779-155.136c29.839-11.94 49.254-40.632 49.254-72.991 0-43.356-35.308-78.643-78.684-78.643v0zM180.388 335.012c-43.377 0-78.664 35.287-78.664 78.643 0 32.358 19.415 61.051 49.459 73.093l361.533 155.034c5.161 2.253 11.203-0.143 13.455-5.366 2.212-5.202-0.184-11.223-5.386-13.455l-361.738-155.136c-22.467-8.991-36.844-30.228-36.844-54.17 0-32.051 26.092-58.163 58.184-58.163 5.652 0 10.24-4.588 10.24-10.24s-4.588-10.24-10.24-10.24v0zM784.712 38.4h-535.921c-5.652 0-10.24 4.588-10.24 10.24v363.069c0 5.652 4.588 10.24 10.24 10.24h535.921c5.652 0 10.24-4.588 10.24-10.24v-363.069c0-5.652-4.567-10.24-10.24-10.24v0zM259.031 58.88h515.441v342.589h-515.441v-342.589zM742.339 143.667h-451.133c-5.652 0-10.24 4.588-10.24 10.24s4.588 10.24 10.24 10.24h451.133c5.652 0 10.24-4.588 10.24-10.24s-4.588-10.24-10.24-10.24v0zM719.176 234.066h-404.808c-5.652 0-10.24 4.588-10.24 10.24s4.588 10.24 10.24 10.24h404.828c5.652 0 10.24-4.588 10.24-10.24s-4.588-10.24-10.26-10.24v0z" />
<glyph unicode="&#xe929;" glyph-name="myc-oeil" d="M517.96 179.876c-222.29 0-413.86 173.24-413.88 258.294 0 85.053 191.59 258.314 413.88 258.314s413.88-173.261 413.88-258.314c-0.020-85.053-191.611-258.294-413.88-258.294v0zM517.96 676.004c-218.931 0-393.38-170.803-393.4-237.834 0-67.031 174.469-237.814 393.4-237.814 218.911 0 393.38 170.783 393.4 237.814 0 67.031-174.449 237.834-393.4 237.834v0zM507.515 307.61c-73.155 0-132.669 59.515-132.669 132.669s59.515 132.669 132.669 132.669c73.134 0 132.669-59.515 132.669-132.669s-59.515-132.669-132.669-132.669v0zM507.515 552.448c-61.87 0-112.189-50.319-112.189-112.189s50.319-112.189 112.189-112.189 112.189 50.319 112.189 112.189-50.319 112.189-112.189 112.189v0z" />
</font>
</defs>
</svg>
