<?xml version="1.0" encoding="utf-8"?>
<!-- Generator: Adobe Illustrator 14.0.0, SVG Export Plug-In . SVG Version: 6.00 Build 43363)  -->
<!DOCTYPE svg PUBLIC "-//W3C//DTD SVG 1.1//EN" "http://www.w3.org/Graphics/SVG/1.1/DTD/svg11.dtd">
<svg version="1.1" id="Calque_1" xmlns="http://www.w3.org/2000/svg" xmlns:xlink="http://www.w3.org/1999/xlink" x="0px" y="0px"
	 width="310px" height="96px" viewBox="0 0 310 96" enable-background="new 0 0 310 96" xml:space="preserve">
<g>
	<g>
		<path fill="#FFFFFF" d="M101.705,54.117c-2.26,3.837-7.589,7.857-14.589,7.857c-9.573,0-17.341-7.27-17.341-17.293
			c0-10.029,7.768-17.298,17.341-17.298c7.137,0.045,12.194,4.245,14.631,8.037h-1.577c-1.265-1.763-5.647-6.773-13.054-6.818
			c-8.849,0-15.986,6.818-15.986,16.08c0,9.256,7.138,16.075,15.986,16.075c7.813,0,12.104-5.327,13.054-6.639H101.705z"/>
		<path fill="#FFFFFF" d="M118.097,27.383c9.576,0,17.341,7.269,17.341,17.298c0,10.024-7.766,17.293-17.341,17.293
			c-9.574,0-17.341-7.27-17.341-17.293C100.756,34.652,108.522,27.383,118.097,27.383z M118.097,60.756
			c8.852,0,15.986-6.818,15.986-16.075c0-9.261-7.135-16.08-15.986-16.08c-8.851,0-15.986,6.818-15.986,16.08
			C102.111,53.938,109.246,60.756,118.097,60.756z"/>
		<path fill="#FFFFFF" d="M161.227,59.582h0.087V27.97h1.356v33.418h-1.717L137.74,29.325h-0.09v32.063h-1.355V27.97h2.032
			L161.227,59.582z"/>
		<path fill="#FFFFFF" d="M195.411,54.117c-2.258,3.837-7.589,7.857-14.589,7.857c-9.57,0-17.342-7.27-17.342-17.293
			c0-10.029,7.771-17.298,17.342-17.298c7.137,0.045,12.194,4.245,14.633,8.037h-1.581c-1.262-1.763-5.643-6.773-13.052-6.818
			c-8.85,0-15.986,6.818-15.986,16.08c0,9.256,7.137,16.075,15.986,16.075c7.815,0,12.104-5.327,13.052-6.639H195.411z"/>
		<path fill="#FFFFFF" d="M197.441,61.388h-1.353V27.97h1.353V61.388z"/>
		<path fill="#FFFFFF" d="M218.26,27.97v1.218H201.28v14.767h16.979v1.223H201.28v14.99h16.979v1.221h-18.334V27.97H218.26z"/>
		<path fill="#FFFFFF" d="M227.293,27.97c5.194,0,7.272,0.45,8.898,1.4c2.71,1.356,4.83,5.013,4.83,8.897
			c0.183,4.153-2.572,10.431-9.842,10.476l-1.312,0.045l8.987,12.601h-1.714l-9.803-13.817h2.078c3.161,0,5.193-0.273,7.406-2.124
			c2.121-2.214,2.847-4.515,2.847-7.135c0-2.892-1.402-6.098-3.976-7.765c-2.033-1.314-4.472-1.359-8.4-1.359h-6.276v32.2h-1.354
			V27.97H227.293z"/>
		<path fill="#FFFFFF" d="M274.123,47.253c-0.947,8.083-8.443,14.722-17.792,14.722c-9.574,0-17.343-7.27-17.343-17.293
			c0-10.029,7.769-17.298,17.343-17.298c6.143,0,12.149,3.026,15.173,7.994h-1.624c-3.341-4.381-8.084-6.775-13.549-6.775
			c-8.852,0-15.986,6.818-15.986,16.08c0,9.256,7.135,16.075,15.986,16.075c8.492,0,14.949-6.051,16.167-12.285h-19.914v-1.218
			H274.123z"/>
		<path fill="#FFFFFF" d="M292.956,27.97v1.218h-16.98v14.767h16.98v1.223h-16.98v14.99h16.98v1.221H274.62V27.97H292.956z"/>
	</g>
	<path fill="#FFFFFF" d="M83.278,27.906h-8.273c0,0-5.21,8.851-6.632,11.268c-1.431-2.416-6.675-11.268-6.675-11.268h-8.14h-1.091
		h-1.063h-9.395c0,0-4.748,14.756-6.179,19.206c-1.508-4.433-6.531-19.206-6.531-19.206H17.044v33.388h9.329c0,0,0-10.425,0-16.795
		c2.194,6.278,5.87,16.795,5.87,16.795h6.841c0,0,3.673-10.617,5.865-16.958c0,6.433,0,16.958,0,16.958h8.609V31.476
		c3.475,5.76,9.959,16.51,10.184,16.88c0,0.578,0,12.938,0,12.938h9.047c0,0,0-12.186,0-12.764
		c0.304-0.503,12.422-20.624,12.422-20.624H83.278z"/>
</g>
</svg>
