<?xml version="1.0" encoding="utf-8"?>
<!-- Generator: Adobe Illustrator 14.0.0, SVG Export Plug-In . SVG Version: 6.00 Build 43363)  -->
<!DOCTYPE svg PUBLIC "-//W3C//DTD SVG 1.1//EN" "http://www.w3.org/Graphics/SVG/1.1/DTD/svg11.dtd">
<svg version="1.1" id="Calque_1" xmlns="http://www.w3.org/2000/svg" xmlns:xlink="http://www.w3.org/1999/xlink" x="0px" y="0px"
	 width="50px" height="50px" viewBox="0 0 50 50" enable-background="new 0 0 50 50" xml:space="preserve">
<g>
	<path fill="#FFFFFF" d="M30.154,7.264L13.097,24.321c-0.195,0.195-0.513,0.195-0.707,0c-0.196-0.196-0.195-0.512,0-0.707
		L29.447,6.557c0.195-0.195,0.512-0.196,0.707,0C30.35,6.751,30.35,7.069,30.154,7.264L30.154,7.264z"/>
</g>
<g>
	<path fill="#FFFFFF" d="M29.436,41.392L12.379,24.334c-0.195-0.195-0.195-0.512,0-0.707c0.195-0.194,0.512-0.195,0.707,0
		l17.057,17.058c0.195,0.194,0.195,0.513,0,0.707C29.948,41.586,29.631,41.586,29.436,41.392L29.436,41.392z"/>
</g>
</svg>
