<?xml version="1.0" encoding="utf-8"?>
<!-- Generator: Adobe Illustrator 16.0.0, SVG Export Plug-In . SVG Version: 6.00 Build 0)  -->
<!DOCTYPE svg PUBLIC "-//W3C//DTD SVG 1.1//EN" "http://www.w3.org/Graphics/SVG/1.1/DTD/svg11.dtd">
<svg version="1.1" id="Layer_1" xmlns="http://www.w3.org/2000/svg" xmlns:xlink="http://www.w3.org/1999/xlink" x="0px" y="0px"
	 width="512px" height="512px" viewBox="-57.808 -111 512 512" enable-background="new -57.808 -111 512 512" xml:space="preserve">
<g>
	<path fill="#DADADA" d="M114.847,64.65c25.42-14.75,55.19-20.57,84.34-20.68c22.34,0.27,44.82,4.02,65.58,12.44
		c18.68,7.58,36.2,19.48,47.57,36.41c7.49,10.99,11.93,23.9,13.32,37.1c1.569,14.311,6.46,28.221,14.26,40.32
		c5.66,8.63,11.439,17.18,17.16,25.77c1.779,2.28,0.93,5.311,1.109,7.971c-106.68,0.029-213.36,0.029-320.04,0.029
		c0.18-2.67-0.62-5.71,1.14-8c5.471-8.18,10.95-16.35,16.37-24.56c5.53-8.431,9.83-17.69,12.391-27.45
		c2.97-10.45,2.64-21.59,6.45-31.84C81.089,91.79,96.498,75.2,114.847,64.65z"/>
</g>
<g>
	<g>
		<path fill="#DADADA" d="M166.187-35.99c21.33-0.021,42.65-0.021,63.98,0c0.02,5.33,0.02,10.65,0,15.979
			c-5.33,0.04-10.65-0.02-15.98,0.021c-0.03,5.26-0.03,10.51,0.01,15.77c9.09,0.91,14.101,10.01,15.49,18.16
			c21.42,3.46,42.7,9.24,61.87,19.64c21.3,11.25,40.12,27.93,51.97,49.07c7.57,13.3,12.23,28.19,13.891,43.39
			c1,9.65,4.28,19.03,9.59,27.16c4.74,7.229,9.58,14.39,14.37,21.6c2.67,4.05,5.649,8,7.18,12.66c2.53,7.25,1.36,15.03,1.62,22.54
			c-0.29,5.75,1.021,11.939-1.75,17.27c-2.78,5.58-8.979,9.08-15.18,8.74c-116.71-0.029-233.431,0.02-350.141-0.029
			c-6.18,0.319-12.45-3.08-15.17-8.711c-2.4-4.379-1.67-9.5-1.75-14.279c0.14-6.93-0.45-13.91,0.43-20.801
			c1.221-8.789,7.45-15.52,11.96-22.789c6.391-10.09,14.341-19.5,17.83-31.11c2.311-6.88,2.5-14.19,3.88-21.26
			c4.53-25.01,18.171-48.02,37.261-64.69c24.66-21.76,56.68-33.65,88.939-38.17c1.67-8.16,6.38-17.49,15.67-18.39
			c0.04-5.26,0.03-10.51,0.011-15.77c-5.33-0.04-10.65,0.02-15.98-0.021C166.169-25.34,166.157-30.66,166.187-35.99z M114.847,64.65
			c-18.35,10.55-33.76,27.14-40.35,47.51c-3.811,10.25-3.48,21.39-6.45,31.84c-2.561,9.76-6.86,19.02-12.391,27.45
			c-5.42,8.21-10.899,16.38-16.369,24.56c-1.761,2.29-0.961,5.33-1.141,8c106.68,0,213.36,0,320.04-0.029
			c-0.18-2.66,0.67-5.69-1.109-7.971c-5.721-8.59-11.5-17.14-17.16-25.77c-7.8-12.1-12.69-26.01-14.26-40.32
			c-1.391-13.2-5.83-26.11-13.32-37.1c-11.37-16.93-28.891-28.83-47.57-36.41c-20.76-8.42-43.24-12.17-65.58-12.44
			C170.038,44.08,140.267,49.9,114.847,64.65z"/>
	</g>
	<path fill="#DADADA" d="M22.227,252.02c117.3-0.029,234.6-0.029,351.9-0.01c7.06,13.961,14.1,27.94,20.97,41.99
		c4.67,9.9-3.93,22.57-14.84,21.99c-121.38,0.01-242.771,0.01-364.16,0c-8.25,0.34-15.62-6.811-16.06-14.94
		c-0.351-3.7,1.109-7.2,2.789-10.39C9.358,277.811,15.657,264.84,22.227,252.02z"/>
</g>
</svg>
