<?xml version="1.0" encoding="utf-8"?>
<!-- Generator: Adobe Illustrator 16.0.0, SVG Export Plug-In . SVG Version: 6.00 Build 0)  -->
<!DOCTYPE svg PUBLIC "-//W3C//DTD SVG 1.1//EN" "http://www.w3.org/Graphics/SVG/1.1/DTD/svg11.dtd">
<svg version="1.1" id="Layer_1" xmlns="http://www.w3.org/2000/svg" xmlns:xlink="http://www.w3.org/1999/xlink" x="0px" y="0px"
	 width="300.463px" height="300.5px" viewBox="0 0 300.463 300.5" enable-background="new 0 0 300.463 300.5" xml:space="preserve">
<path fill="none" stroke="#23242D" stroke-width="3" stroke-miterlimit="10" d="M201.958,244.787h-40.562v-14.664h34.717
	c2.621,0,4.748-2.893,4.748-6.463c0-3.568-2.127-6.461-4.748-6.461h-34.717v-68.674c0-1.834-0.409-3.564-1.123-5.129
	c35.843-4.166,63.46-30.283,63.46-61.905c0-34.521-32.906-62.502-73.501-62.502c-40.596,0-73.502,27.982-73.502,62.502
	c0,31.084,26.689,56.856,61.642,61.681c-0.778,1.62-1.229,3.432-1.229,5.354v127.91c0,6.771,24.255,6.771,24.255,0v-17.045h40.561
	c2.621,0,4.748-3.271,4.748-7.302C206.707,248.059,204.58,244.787,201.958,244.787z M103.16,81.491
	c0-22.106,21.074-40.026,47.071-40.026c25.997,0,47.07,17.919,47.07,40.026c0,22.106-21.076,40.026-47.07,40.026
	C124.234,121.517,103.16,103.599,103.16,81.491z"/>
</svg>
