<?xml version="1.0" encoding="utf-8"?>
<!-- Generator: Adobe Illustrator 14.0.0, SVG Export Plug-In . SVG Version: 6.00 Build 43363)  -->
<!DOCTYPE svg PUBLIC "-//W3C//DTD SVG 1.1//EN" "http://www.w3.org/Graphics/SVG/1.1/DTD/svg11.dtd">
<svg version="1.1" id="Calque_1" xmlns="http://www.w3.org/2000/svg" xmlns:xlink="http://www.w3.org/1999/xlink" x="0px" y="0px"
	 width="50px" height="50px" viewBox="0 0 50 50" enable-background="new 0 0 50 50" xml:space="preserve">
<g>
	<path d="M16.346,41.736l17.057-17.057c0.195-0.195,0.514-0.195,0.707,0c0.197,0.196,0.195,0.512,0,0.707L17.053,42.443
		c-0.195,0.195-0.512,0.195-0.707,0C16.15,42.249,16.15,41.932,16.346,41.736L16.346,41.736z"/>
</g>
<g>
	<path d="M17.064,7.607l17.057,17.059c0.195,0.195,0.195,0.512,0,0.707c-0.195,0.193-0.512,0.195-0.707,0L16.357,8.314
		c-0.195-0.193-0.195-0.513,0-0.707C16.552,7.414,16.869,7.414,17.064,7.607L17.064,7.607z"/>
</g>
</svg>
